<svg width="137" height="76" viewBox="0 0 137 76" fill="none" xmlns="http://www.w3.org/2000/svg">
<path d="M0 22.9375C0 21.3003 1.13074 20.3353 2.72032 20.3353C4.30991 20.3353 5.42425 21.2486 5.42425 22.8513V23.4545C5.42425 23.5751 5.3587 23.6441 5.24399 23.6441H3.98216C3.88383 23.6441 3.80189 23.5751 3.80189 23.4545V23.1098C3.80189 22.3171 3.37582 21.9207 2.72032 21.9207C2.06482 21.9207 1.63875 22.3688 1.63875 23.2132V27.0562C1.63875 27.9007 2.06482 28.3487 2.72032 28.3487C3.37582 28.3487 3.80189 28.0041 3.80189 27.1596V26.5565C3.80189 26.4358 3.73634 26.3669 3.62163 26.3669H2.90058C2.78587 26.3669 2.72032 26.298 2.72032 26.1773V24.971C2.72032 24.8504 2.78587 24.7815 2.90058 24.7815H5.26038C5.3587 24.7815 5.44064 24.8504 5.44064 24.971V27.4181C5.44064 29.0553 4.30991 29.9342 2.73671 29.9342C1.16351 29.9342 0.0163875 28.9691 0.0163875 27.332V22.9375H0Z" fill="#F2BA6F"/>
<path d="M9.52089 24.6781C10.1764 24.6781 10.6025 24.1438 10.6025 23.5407V23.1443C10.6025 22.5239 10.1928 21.9897 9.52089 21.9897H8.61958C8.50486 21.9897 8.43931 22.0586 8.43931 22.1792V24.4885C8.43931 24.6091 8.50486 24.6781 8.61958 24.6781H9.52089ZM6.80057 29.6585V20.611C6.80057 20.4904 6.86612 20.4214 6.98083 20.4214H9.52089C11.1105 20.4214 12.2412 21.4554 12.2412 22.8686V23.8164C12.2412 24.4885 11.9626 25.1951 11.3071 25.6948C11.2252 25.7638 11.1596 25.8327 11.1924 25.9533L12.0937 29.5896C12.1429 29.7964 12.0282 29.848 11.8971 29.848H10.8155C10.6352 29.848 10.5533 29.848 10.5041 29.6585L9.70115 26.4531C9.68476 26.3325 9.60283 26.2635 9.45534 26.2635H8.60319C8.48848 26.2635 8.42293 26.3325 8.42293 26.4531V29.6585C8.42293 29.7791 8.35738 29.848 8.24267 29.848H6.96444C6.84973 29.848 6.78418 29.7791 6.78418 29.6585" fill="#F2BA6F"/>
<path d="M13.6016 20.611C13.6016 20.4904 13.6671 20.4214 13.7818 20.4214H15.0764C15.1911 20.4214 15.2567 20.4904 15.2567 20.611V27.039C15.2567 27.9007 15.6828 28.366 16.3383 28.366C16.9938 28.366 17.4198 27.9179 17.4198 27.039V20.611C17.4198 20.4904 17.4854 20.4214 17.6001 20.4214H18.8947C19.0094 20.4214 19.075 20.4904 19.075 20.611V27.3148C19.075 28.9692 17.9279 29.9342 16.3383 29.9342C14.7487 29.9342 13.618 28.9692 13.618 27.3148V20.611H13.6016Z" fill="#F2BA6F"/>
<path d="M23.3356 25.1778C24.0074 25.1778 24.4171 24.6264 24.4171 23.8853V23.2994C24.4171 22.5584 24.0074 21.9897 23.3356 21.9897H22.4342C22.3359 21.9897 22.254 22.0586 22.254 22.1792V24.9883C22.254 25.1089 22.3195 25.1778 22.4342 25.1778H23.3356ZM20.6152 29.6585V20.611C20.6152 20.4904 20.6808 20.4214 20.7955 20.4214H23.3356C24.9251 20.4214 26.0559 21.4899 26.0559 23.0237V24.1611C26.0559 25.6948 24.9251 26.7633 23.3356 26.7633H22.4342C22.3359 26.7633 22.254 26.8322 22.254 26.9529V29.6585C22.254 29.7791 22.1884 29.848 22.0737 29.848H20.7955C20.6808 29.848 20.6152 29.7791 20.6152 29.6585Z" fill="#F2BA6F"/>
<path d="M30.0546 28.3487C30.7265 28.3487 31.1362 27.9007 31.1362 27.0218V23.2305C31.1362 22.3688 30.7265 21.9035 30.0546 21.9035C29.3827 21.9035 28.973 22.3516 28.973 23.2305V27.0218C28.973 27.8834 29.3827 28.3487 30.0546 28.3487ZM27.3179 22.9547C27.3179 21.3003 28.4486 20.3353 30.0382 20.3353C31.6278 20.3353 32.7749 21.3003 32.7749 22.9547V27.2975C32.7749 28.9519 31.6278 29.917 30.0382 29.917C28.4486 29.917 27.3179 28.9519 27.3179 27.2975V22.9547Z" fill="#F2BA6F"/>
<path d="M130.133 38.8266C130.133 43.738 125.282 47.4949 120.35 45.0478C118.154 43.9621 116.843 41.5666 116.843 39.0161V12.3735C116.843 9.82294 118.17 7.42752 120.35 6.34182C125.282 3.91193 130.133 7.65155 130.133 12.563V38.8093V38.8266ZM118.973 0.87887C114.843 2.4988 111.533 7.78942 111.533 12.4079V38.9644C111.533 43.6002 114.843 48.8908 118.973 50.5107C127.445 53.8195 135.442 47.2881 135.442 38.8093V12.5803C135.442 4.11873 127.445 -2.42992 118.973 0.87887ZM134.541 51.4413L117.449 62.2466C111.713 65.8656 105.142 67.7957 98.456 67.7957C92.3926 67.7957 86.3456 66.193 81.0033 63.1772L64.0914 53.6299C57.9789 50.1833 51.0634 48.3566 44.1315 48.3566H44.066L59.1916 5.61802H59.208V0.67207C59.208 0.327405 58.9458 0.034439 58.6016 0.034439H39.3791C39.0514 0.034439 38.7728 0.310172 38.7728 0.67207V4.99762C38.7728 5.34229 39.035 5.63526 39.3791 5.63526H52.6366C53.0627 5.63526 53.3413 6.06609 53.1938 6.47969L38.1173 49.0459C38.0681 49.1665 38.0518 49.3044 38.0518 49.425C38.0518 49.425 38.0518 49.4595 38.0518 49.4767V53.3197C38.0518 53.6644 38.314 53.9574 38.6581 53.9574H44.0987C50.1621 53.9574 56.2091 55.5601 61.5514 58.5759L78.4632 68.1231C84.5758 71.587 91.4913 73.3965 98.4232 73.3965C106.076 73.3965 113.598 71.2079 120.153 67.0547L135.131 57.5936C135.311 57.473 135.426 57.2662 135.426 57.0594V52.0273C135.426 51.5275 134.918 51.2345 134.525 51.493M91.2127 50.6658H110.435C110.763 50.6658 111.042 50.3901 111.042 50.0282V45.7026C111.042 45.358 110.779 45.065 110.435 45.065H96.5222C96.1945 45.065 95.9159 44.7893 95.9159 44.4274V0.67207C95.9159 0.327405 95.6537 0.034439 95.3096 0.034439H91.1963C90.8686 0.034439 90.59 0.310172 90.59 0.67207V50.0282C90.59 50.3729 90.8522 50.6658 91.1963 50.6658M64.9764 50.6658H84.1989C84.5266 50.6658 84.8052 50.3901 84.8052 50.0282V45.7026C84.8052 45.358 84.543 45.065 84.1989 45.065H70.2859C69.9582 45.065 69.6796 44.7893 69.6796 44.4274V28.5211C69.6796 28.1764 69.9418 27.8834 70.2859 27.8834H78.496C78.8238 27.8834 79.1024 27.6077 79.1024 27.2458V22.9202C79.1024 22.5756 78.8402 22.2826 78.496 22.2826H70.2859C69.9582 22.2826 69.6796 22.0069 69.6796 21.645V6.25565C69.6796 5.91099 69.9418 5.61802 70.2859 5.61802H84.1989C84.5266 5.61802 84.8052 5.34229 84.8052 4.98039V0.67207C84.8052 0.327405 84.543 0.034439 84.1989 0.034439H64.9764C64.6486 0.034439 64.37 0.310172 64.37 0.67207V50.0282C64.37 50.3729 64.6322 50.6658 64.9764 50.6658Z" fill="#F2BA6F"/>
</svg>
